<?xml version="1.0" encoding="UTF-8" standalone="no"?>
<!-- Generator: Adobe Illustrator 9.0, SVG Export Plug-In  -->
<svg
   xmlns:dc="http://purl.org/dc/elements/1.1/"
   xmlns:cc="http://web.resource.org/cc/"
   xmlns:rdf="http://www.w3.org/1999/02/22-rdf-syntax-ns#"
   xmlns:svg="http://www.w3.org/2000/svg"
   xmlns="http://www.w3.org/2000/svg"
   xmlns:sodipodi="http://sodipodi.sourceforge.net/DTD/sodipodi-0.dtd"
   xmlns:inkscape="http://www.inkscape.org/namespaces/inkscape"
   width="48"
   height="48"
   viewBox="0 0 48 48"
   xml:space="preserve"
   id="svg2"
   sodipodi:version="0.32"
   inkscape:version="0.45.1"
   sodipodi:docname="document-save.svg"
   sodipodi:docbase="/home/christof/themes_and_icons/meinICONtheme/BRIT ICONS/scalable/actions"
   version="1.0"
   inkscape:output_extension="org.inkscape.output.svg.inkscape"><metadata
   id="metadata25"><rdf:RDF><cc:Work
       rdf:about=""><dc:format>image/svg+xml</dc:format><dc:type
         rdf:resource="http://purl.org/dc/dcmitype/StillImage" /></cc:Work></rdf:RDF></metadata><defs
   id="defs23">
		
	
			
			
			
			
			
			
		</defs><sodipodi:namedview
   inkscape:window-height="1003"
   inkscape:window-width="1680"
   inkscape:pageshadow="2"
   inkscape:pageopacity="0.55686275"
   borderopacity="1.0"
   bordercolor="#666666"
   pagecolor="#8f3b3b"
   id="base"
   showgrid="true"
   inkscape:grid-bbox="true"
   inkscape:grid-points="true"
   inkscape:zoom="8.2083331"
   inkscape:cx="51.460214"
   inkscape:cy="20.287631"
   inkscape:window-x="0"
   inkscape:window-y="47"
   inkscape:current-layer="svg2" />
	<rect
   style="opacity:1;fill:#ffffff;fill-opacity:1;fill-rule:nonzero;stroke:none;stroke-width:10;stroke-linejoin:miter;stroke-miterlimit:4;stroke-dasharray:none;stroke-opacity:1"
   id="rect5161"
   width="46"
   height="44"
   x="1"
   y="2"
   rx="6.5362654" /><path
   style="fill:#303030;fill-opacity:1;fill-rule:nonzero;stroke:none;stroke-width:5.99999905;stroke-linecap:round;stroke-linejoin:round;stroke-miterlimit:4;stroke-dasharray:none;stroke-opacity:1"
   d="M 7.4075789,5.495944 C 6.1219913,5.6306901 5.1479022,6.7180454 5.1548154,8.0106568 L 5.1548154,35.751082 C 5.153206,36.418646 5.4170709,37.059462 5.8882733,37.532338 L 9.9746816,41.644941 C 10.447558,42.116144 11.088373,42.380009 11.755937,42.378399 L 40.517964,42.378399 C 41.906745,42.378261 43.032539,41.252467 43.032677,39.863686 L 43.032677,8.0106568 C 43.032539,6.6218768 41.906745,5.4960826 40.517964,5.495944 L 7.6695283,5.495944 C 7.5822712,5.4913936 7.4948361,5.4913936 7.4075789,5.495944 z M 9.7127323,9.0322584 L 38.474761,9.0322584 L 38.474761,22.391671 L 9.7127323,22.391671 L 9.7127323,9.0322584 z M 13.825336,26.504275 L 31.271156,26.504275 C 32.400782,26.504275 33.340555,27.416794 33.340555,28.547478 L 33.340555,37.820483 C 33.340555,38.951167 32.400782,39.863686 31.271156,39.863686 L 13.825336,39.863686 C 12.695709,39.863687 11.755937,38.951166 11.755937,37.820483 L 11.755937,28.547478 C 11.755937,27.416794 12.695709,26.504275 13.825336,26.504275 z "
   id="path9" /><path
   style="fill:#303030;fill-opacity:1;fill-rule:nonzero;stroke:none;stroke-miterlimit:4"
   d="M 21.264733,36.647984 L 15.618391,36.647984 L 15.618391,28.170545 L 21.264733,28.170545 L 21.264733,36.647984 z "
   id="path15"
   sodipodi:nodetypes="ccccc" />
	
</svg>