<?xml version="1.0" encoding="UTF-8" standalone="no"?>
<!-- Created with Inkscape (http://www.inkscape.org/) -->
<svg
   xmlns:dc="http://purl.org/dc/elements/1.1/"
   xmlns:cc="http://web.resource.org/cc/"
   xmlns:rdf="http://www.w3.org/1999/02/22-rdf-syntax-ns#"
   xmlns:svg="http://www.w3.org/2000/svg"
   xmlns="http://www.w3.org/2000/svg"
   xmlns:sodipodi="http://sodipodi.sourceforge.net/DTD/sodipodi-0.dtd"
   xmlns:inkscape="http://www.inkscape.org/namespaces/inkscape"
   width="128"
   height="128"
   id="svg2"
   sodipodi:version="0.32"
   inkscape:version="0.45.1"
   version="1.0"
   sodipodi:docbase="/home/christof/themes_and_icons/meinICONtheme/ALLGREY_mod/scalable/status"
   sodipodi:docname="folder-drag-accept.svg"
   inkscape:output_extension="org.inkscape.output.svg.inkscape">
  <defs
     id="defs4" />
  <sodipodi:namedview
     id="base"
     pagecolor="#ffffff"
     bordercolor="#000000"
     borderopacity="1"
     inkscape:pageopacity="0.0"
     inkscape:pageshadow="2"
     inkscape:zoom="1.979899"
     inkscape:cx="74.996409"
     inkscape:cy="50.99521"
     inkscape:document-units="px"
     inkscape:current-layer="layer1"
     width="128px"
     height="128px"
     showgrid="true"
     inkscape:window-width="1680"
     inkscape:window-height="1003"
     inkscape:window-x="0"
     inkscape:window-y="47" />
  <metadata
     id="metadata7">
    <rdf:RDF>
      <cc:Work
         rdf:about="">
        <dc:format>image/svg+xml</dc:format>
        <dc:type
           rdf:resource="http://purl.org/dc/dcmitype/StillImage" />
      </cc:Work>
    </rdf:RDF>
  </metadata>
  <g
     inkscape:label="Ebene 1"
     inkscape:groupmode="layer"
     id="layer1">
    <path
       style="fill:#262729;fill-opacity:1"
       d="M 37.023437,99.453735 C 22.026997,97.256404 9.1399574,85.108286 5.9733528,70.184015 C 5.398297,67.473784 4.935685,56.879169 4.935685,46.419856 L 4.935685,27.546241 L 45.773124,27.553212 C 69.829163,27.557319 89.062876,27.958057 92.578242,28.528404 C 107.30477,30.917693 118.88108,42.067997 122.02665,56.893105 C 122.6063,59.625069 123.06431,70.317731 123.06431,81.118703 L 123.06431,100.45376 L 82.688322,100.34122 C 60.481523,100.27933 39.932327,99.879958 37.023437,99.453735 z "
       id="path2236" />
    <path
       style="color:#000000;fill:#ffffff;fill-opacity:1;fill-rule:nonzero;stroke:#262729;stroke-width:2.9000001;stroke-linecap:butt;stroke-linejoin:miter;marker:none;marker-start:none;marker-mid:none;marker-end:none;stroke-miterlimit:4;stroke-dasharray:none;stroke-dashoffset:0;stroke-opacity:1;visibility:visible;display:block;overflow:visible"
       d="M 120.28271,69.280843 C 122.08091,19.859738 53.781653,17.291564 40.123673,56.782884 L 17.333883,48.573214 L 41.472853,92.781954 L 89.976303,74.741514 C 89.976303,74.741514 66.474353,66.275304 66.474353,66.275304 C 74.610543,39.208034 107.25754,34.016396 120.28271,69.280843 z "
       id="path1432"
       sodipodi:nodetypes="ccccccc" />
  </g>
</svg>
