<?xml version="1.0" encoding="UTF-8" standalone="no"?>
<!-- Created with Inkscape (http://www.inkscape.org/) -->
<svg
   xmlns:dc="http://purl.org/dc/elements/1.1/"
   xmlns:cc="http://web.resource.org/cc/"
   xmlns:rdf="http://www.w3.org/1999/02/22-rdf-syntax-ns#"
   xmlns:svg="http://www.w3.org/2000/svg"
   xmlns="http://www.w3.org/2000/svg"
   xmlns:sodipodi="http://sodipodi.sourceforge.net/DTD/sodipodi-0.dtd"
   xmlns:inkscape="http://www.inkscape.org/namespaces/inkscape"
   width="48px"
   height="48px"
   id="svg3465"
   sodipodi:version="0.32"
   inkscape:version="0.45"
   sodipodi:docbase="/usr/share/icons/HighContrast-SVG/scalable/actions"
   sodipodi:docname="gnome-lockscreen.svg"
   inkscape:output_extension="org.inkscape.output.svg.inkscape"
   sodipodi:modified="true">
  <defs
     id="defs3467" />
  <sodipodi:namedview
     id="base"
     pagecolor="#ffffff"
     bordercolor="#666666"
     borderopacity="1.0"
     inkscape:pageopacity="0.0"
     inkscape:pageshadow="2"
     inkscape:zoom="5.5831974"
     inkscape:cx="63.58055"
     inkscape:cy="33.138444"
     inkscape:current-layer="layer1"
     showgrid="true"
     inkscape:grid-bbox="true"
     inkscape:document-units="px"
     inkscape:grid-points="true"
     inkscape:window-width="1278"
     inkscape:window-height="948"
     inkscape:window-x="0"
     inkscape:window-y="23" />
  <metadata
     id="metadata3470">
    <rdf:RDF>
      <cc:Work
         rdf:about="">
        <dc:format>image/svg+xml</dc:format>
        <dc:type
           rdf:resource="http://purl.org/dc/dcmitype/StillImage" />
      </cc:Work>
    </rdf:RDF>
  </metadata>
  <g
     id="layer1"
     inkscape:label="Layer 1"
     inkscape:groupmode="layer">
    <path
       style="opacity:1.3030300;color:#303030;fill:#303030;fill-opacity:1.3030300;fill-rule:nonzero;stroke:none;stroke-width:0.99999970;stroke-linecap:butt;stroke-linejoin:miter;marker:none;marker-start:none;marker-mid:none;marker-end:none;stroke-miterlimit:10.303030;stroke-dasharray:none;stroke-dashoffset:0.3030300;stroke-opacity:1.3030300;visibility:visible;display:block;overflow:visible"
       d="M 24.303030,4.3030300 C 17.303030,4.3030300 12.303030,8.1739046 12.303030,15.303030 L 12.303030,21.303030 L 10.303030,21.303030 C 8.3030300,21.303030 7.3030300,22.303030 7.3030300,24.303030 L 7.3030300,41.303030 C 7.3030300,41.980326 8.3030300,44.303030 10.303030,44.303030 L 39.384016,44.303030 C 41.303030,43.990546 42.303030,41.980324 42.303030,41.303030 L 42.303030,24.303030 C 42.303030,22.303030 41.303030,20.990546 39.303030,20.990546 L 37.303030,21.303030 L 37.303030,15.303030 C 37.303030,8.3030300 32.303030,4.3030300 25.303030,4.3030300 L 24.303030,4.3030300 z M 24.303030,9.3030300 L 25.303030,9.3030300 C 32.303030,9.3030300 32.303030,15.303030 32.303030,17.303030 L 32.303030,21.303030 L 17.303030,21.303030 L 17.303030,17.303030 C 17.303030,15.303030 17.303030,9.3030300 24.303030,9.3030300 z "
       id="path2086"
       inkscape:r_cx="true"
       inkscape:r_cy="true"
       sodipodi:nodetypes="cccccccccccccsccsccccc" />
  </g>
</svg>
