#define desk_toggled_width 16
#define desk_toggled_height 16
static unsigned char desk_toggled_bits[] = {
   0x30, 0x00, 0x78, 0x00, 0xfc, 0x00, 0xfe, 0x01, 0xff, 0x3f, 0xff, 0x1f,
   0xfe, 0x0f, 0xfc, 0x07, 0xf8, 0x03, 0xf0, 0x07, 0xf0, 0x0e, 0x70, 0x1c,
   0x30, 0x38, 0x10, 0x70, 0x00, 0xe0, 0x00, 0xc0 };
