#define max_width 16
#define max_height 16
static unsigned char max_bits[] = {
   0x80, 0xff, 0x80, 0xff, 0x00, 0xff, 0x00, 0xfe, 0x00, 0xfc, 0x00, 0xf8,
   0x00, 0xf0, 0x03, 0xe0, 0x07, 0xc0, 0x0f, 0x00, 0x1f, 0x00, 0x3f, 0x00,
   0x7f, 0x00, 0xff, 0x00, 0xff, 0x01, 0xff, 0x01 };
