#define max_toggled_width 20
#define max_toggled_height 20
static unsigned char max_toggled_bits[] = {
   0x00, 0x18, 0x00, 0x00, 0x38, 0x00, 0x00, 0x78, 0x00, 0x00, 0xf8, 0x00,
   0x00, 0xf8, 0x01, 0x00, 0xf8, 0x03, 0x00, 0xf8, 0x07, 0x00, 0xf8, 0x0f,
   0x00, 0xf8, 0x0f, 0x00, 0x00, 0x00, 0x00, 0x00, 0x00, 0xff, 0x01, 0x00,
   0xff, 0x01, 0x00, 0xfe, 0x01, 0x00, 0xfc, 0x01, 0x00, 0xf8, 0x01, 0x00,
   0xf0, 0x01, 0x00, 0xe0, 0x01, 0x00, 0xc0, 0x01, 0x00, 0x80, 0x01, 0x00 };
