#define shade_toggled_width 16
#define shade_toggled_height 16
static unsigned char shade_toggled_bits[] = {
   0xc0, 0x03, 0xc0, 0x03, 0xc0, 0x03, 0xc0, 0x03, 0xc0, 0x03, 0xc0, 0x03,
   0xc7, 0xe3, 0xcf, 0xf3, 0xdf, 0xfb, 0xfe, 0x7f, 0xfc, 0x3f, 0xf8, 0x1f,
   0xf0, 0x0f, 0xe0, 0x07, 0xc0, 0x03, 0x80, 0x01 };
