#define iconify_disabled_width 9
#define iconify_disabled_height 9
static unsigned char iconify_disabled_bits[] = {
   0x00, 0x00, 0x00, 0x00, 0x00, 0x00, 0x00, 0x00, 0x00, 0x00, 0x00, 0x00,
   0x00, 0x00, 0xff, 0x01, 0xff, 0x01 };
