<?xml version="1.0" encoding="UTF-8" standalone="no"?>
<!-- Generator: Adobe Illustrator 9.0, SVG Export Plug-In  -->
<svg
   xmlns:dc="http://purl.org/dc/elements/1.1/"
   xmlns:cc="http://web.resource.org/cc/"
   xmlns:rdf="http://www.w3.org/1999/02/22-rdf-syntax-ns#"
   xmlns:svg="http://www.w3.org/2000/svg"
   xmlns="http://www.w3.org/2000/svg"
   xmlns:sodipodi="http://sodipodi.sourceforge.net/DTD/sodipodi-0.dtd"
   xmlns:inkscape="http://www.inkscape.org/namespaces/inkscape"
   width="48"
   height="48"
   viewBox="0 0 48 48"
   xml:space="preserve"
   id="svg2"
   sodipodi:version="0.32"
   inkscape:version="0.45.1"
   sodipodi:docname="document-print-preview.svg"
   sodipodi:docbase="/home/christof/themes_and_icons/meinICONtheme/BRIT ICONS/scalable/actions"
   version="1.0"
   inkscape:output_extension="org.inkscape.output.svg.inkscape"><sodipodi:namedview
   inkscape:window-height="1003"
   inkscape:window-width="1680"
   inkscape:pageshadow="2"
   inkscape:pageopacity="0.0"
   borderopacity="1.0"
   bordercolor="#666666"
   pagecolor="#ffffff"
   id="base"
   showgrid="true"
   inkscape:grid-bbox="true"
   inkscape:grid-points="true"
   inkscape:zoom="8.2083338"
   inkscape:cx="20.055243"
   inkscape:cy="13.344294"
   inkscape:window-x="0"
   inkscape:window-y="47"
   inkscape:current-layer="svg2"
   showguides="true"
   inkscape:guide-bbox="true" /><metadata
   id="metadata31"><rdf:RDF><cc:Work
       rdf:about=""><dc:format>image/svg+xml</dc:format><dc:type
         rdf:resource="http://purl.org/dc/dcmitype/StillImage" /></cc:Work></rdf:RDF></metadata><defs
   id="defs29">
		
	
			
			
			
			
			
			
			
			
			
		
		
	
			
			
			
			
			
			
			
			
			
			
			
		</defs>
	
	
<rect
   style="opacity:1;fill:#ffffff;fill-opacity:1;fill-rule:nonzero;stroke:none;stroke-width:10;stroke-linejoin:miter;stroke-miterlimit:4;stroke-dasharray:none;stroke-opacity:1"
   id="rect5161"
   width="47.131763"
   height="43.075653"
   x="0.43411827"
   y="2.4621735"
   rx="6.6970806" /><g
   id="g5710"
   transform="matrix(0.8529847,0,0,0.8529847,3.5420225,3.6937604)"><g
     id="g3095"
     transform="matrix(1.1139601,0,0,1.1142857,-2.7350427,-2.1984047)"><path
       id="path13"
       transform="matrix(0.8976982,0,0,0.8974359,2.455243,1.9729273)"
       d="M 2.84375,24.53125 C 2.398166,24.53125 1.71875,25.210536 1.71875,25.65625 L 1.71875,41.25 C 1.71875,41.695714 2.398166,42.374999 2.84375,42.375 L 5.0625,42.375 L 5.0625,44.59375 C 5.0624998,45.039464 5.7419159,45.718749 6.1875,45.71875 L 41.8125,45.71875 C 42.258082,45.71875 42.937501,45.039466 42.9375,44.59375 L 42.9375,42.375 L 45.15625,42.375 C 45.601831,42.375 46.28125,41.695712 46.28125,41.25 L 46.28125,25.65625 C 46.281247,25.210536 45.601834,24.531249 45.15625,24.53125 L 43.21875,24.53125 C 43.399834,25.357483 43.5,26.213418 43.5,27.09375 C 43.499997,33.684126 38.152876,39.031251 31.5625,39.03125 C 28.615933,39.03125 25.926479,37.95849 23.84375,36.1875 L 22.96875,39.03125 L 20.59375,41.59375 L 19.875,42.375 L 17.75,44.65625 C 17.389983,45.041983 15.694095,45.600345 14.375,44.28125 C 13.827884,43.734134 13.630043,43.017461 13.625,42.375 C 13.624281,42.343301 13.624733,42.312565 13.625,42.28125 C 13.626184,42.215373 13.651544,42.157272 13.65625,42.09375 C 13.668423,41.929439 13.687858,41.7665 13.71875,41.625 C 13.720769,41.615752 13.716667,41.602878 13.71875,41.59375 C 13.797956,41.274819 13.912853,41.016754 14.03125,40.90625 L 19.625,35.6875 L 22.46875,34.8125 C 20.855729,32.915547 19.827843,30.514425 19.65625,27.875 L 10.625,27.875 L 10.625,24.53125 L 2.84375,24.53125 z "
       style="fill:#303030;fill-rule:nonzero;stroke:none;stroke-width:7.43289995;stroke-linejoin:round;stroke-miterlimit:4" /><path
       id="path17"
       transform="matrix(0.8976982,0,0,0.8974359,2.455243,1.9729273)"
       d="M 10.625,2.25 C 7.2831194,2.2500001 6.1875,4.4901786 6.1875,6.71875 L 6.1875,26.78125 L 10.625,26.78125 L 10.625,7.84375 C 10.625,7.8437499 10.63604,6.71875 11.75,6.71875 L 36.25,6.71875 C 37.363962,6.7187501 37.375,7.84375 37.375,7.84375 L 37.375,16.6875 C 39.201671,17.721708 40.740801,19.225501 41.8125,21.03125 L 41.8125,6.71875 C 41.8125,4.4901785 40.71688,2.25 37.375,2.25 L 10.625,2.25 z "
       style="fill:#303030;fill-rule:nonzero;stroke:none;stroke-width:7.43289995;stroke-linejoin:round;stroke-miterlimit:4" /></g><path
     id="path21"
     d="M 15.75,19.1875 L 15.75,23.1875 L 20.28125,23.1875 C 20.798045,21.704214 21.604617,20.339422 22.625,19.1875 L 15.75,19.1875 z "
     style="fill:#303030;fill-opacity:1;fill-rule:nonzero;stroke:none;stroke-width:4;stroke-linejoin:miter;stroke-miterlimit:4;stroke-dasharray:none;stroke-opacity:1" /><path
     id="path23"
     d="M 15.6875,11.40625 L 15.6875,15.40625 L 29.15625,15.40625 C 29.933223,15.247124 30.738703,15.15625 31.5625,15.15625 C 31.64677,15.15625 31.728644,15.15451 31.8125,15.15625 L 31.8125,11.40625 L 15.6875,11.40625 z "
     style="fill:#303030;fill-opacity:1;fill-rule:nonzero;stroke:none;stroke-width:4;stroke-linejoin:miter;stroke-miterlimit:4;stroke-dasharray:none;stroke-opacity:1" /><g
     style="display:inline"
     inkscape:label="Text"
     id="layer5"
     transform="matrix(0.6395939,0,0,0.6395939,13.208122,14.741117)"><rect
       style="fill:none;fill-opacity:0.27027025;stroke:none;stroke-width:4;stroke-linecap:round;stroke-linejoin:round;stroke-miterlimit:4;stroke-dasharray:none;stroke-opacity:1"
       height="56"
       width="56"
       y="-4"
       x="-4"
       id="rect1493" /><path
       sodipodi:rx="12"
       sodipodi:ry="12"
       style="fill:#303030;fill-opacity:1;stroke:none;stroke-width:4;stroke-linecap:round;stroke-linejoin:round;stroke-miterlimit:4;stroke-dasharray:none;stroke-opacity:1"
       sodipodi:type="arc"
       d="M 32 20 A 12 12 0 1 1  8,20 A 12 12 0 1 1  32 20 z"
       transform="matrix(-1.1666667,0,0,1.1666667,52.014642,-4)"
       sodipodi:cy="20"
       sodipodi:cx="20"
       id="path4994" /></g></g></svg>