<?xml version="1.0" encoding="UTF-8" standalone="no"?>
<!-- Generator: Adobe Illustrator 9.0, SVG Export Plug-In  -->
<svg
   xmlns:dc="http://purl.org/dc/elements/1.1/"
   xmlns:cc="http://web.resource.org/cc/"
   xmlns:rdf="http://www.w3.org/1999/02/22-rdf-syntax-ns#"
   xmlns:svg="http://www.w3.org/2000/svg"
   xmlns="http://www.w3.org/2000/svg"
   xmlns:sodipodi="http://sodipodi.sourceforge.net/DTD/sodipodi-0.dtd"
   xmlns:inkscape="http://www.inkscape.org/namespaces/inkscape"
   width="48"
   height="48"
   viewBox="0 0 24 24"
   xml:space="preserve"
   id="svg2"
   sodipodi:version="0.32"
   inkscape:version="0.45.1"
   sodipodi:docname="edit-paste.svg"
   sodipodi:docbase="/home/christof/themes_and_icons/meinICONtheme/BRIT ICONS/scalable/actions"
   inkscape:output_extension="org.inkscape.output.svg.inkscape"
   version="1.0"><metadata
   id="metadata70"><rdf:RDF><cc:Work
       rdf:about=""><dc:format>image/svg+xml</dc:format><dc:type
         rdf:resource="http://purl.org/dc/dcmitype/StillImage" /></cc:Work></rdf:RDF></metadata><defs
   id="defs68" /><sodipodi:namedview
   inkscape:window-height="1003"
   inkscape:window-width="1680"
   inkscape:pageshadow="2"
   inkscape:pageopacity="0.0"
   guidetolerance="10.0"
   gridtolerance="10.0"
   objecttolerance="10.0"
   borderopacity="1.0"
   bordercolor="#666666"
   pagecolor="#ffffff"
   id="base"
   width="48px"
   height="48px"
   inkscape:zoom="9.5930821"
   inkscape:cx="25.093689"
   inkscape:cy="20.539834"
   inkscape:window-x="0"
   inkscape:window-y="47"
   inkscape:current-layer="svg2"
   showgrid="true" />
	
	
	<rect
   style="opacity:1;fill:#ffffff;fill-opacity:1;fill-rule:nonzero;stroke:none;stroke-width:10.00000095;stroke-linejoin:miter;stroke-miterlimit:4;stroke-dasharray:none;stroke-opacity:1"
   id="rect3188"
   width="23.51096"
   height="23.736698"
   x="0.24452023"
   y="0.13165118"
   ry="3.7483552" /><g
   id="g2185"
   transform="matrix(0.9391923,0,0,0.9391923,0.7296925,0.7296925)"><path
     id="path45"
     transform="scale(0.5,0.5)"
     d="M 17.8125,17.40625 L 17.8125,17.59375 C 16.212501,17.59375 15,18.80625 15,20.40625 L 15,42.8125 C 15,44.412501 16.2125,45.59375 17.8125,45.59375 L 42.59375,45.59375 C 44.193752,45.593752 45.40625,44.4125 45.40625,42.8125 L 45.40625,20.1875 C 45.406248,18.587499 44.19375,17.40625 42.59375,17.40625 L 17.8125,17.40625 z M 17.8125,19.1875 L 42.59375,19.1875 C 43.193752,19.187499 43.59375,19.5875 43.59375,20.1875 L 43.59375,42.59375 L 43.8125,42.59375 C 43.812501,43.193752 43.4125,43.59375 42.8125,43.59375 L 17.8125,43.59375 C 17.212501,43.593752 16.8125,43.19375 16.8125,42.59375 L 16.8125,20.1875 C 16.812501,19.587499 17.2125,19.1875 17.8125,19.1875 z "
     style="fill:#303030;fill-opacity:1;fill-rule:nonzero;stroke:none;stroke-width:0.84759998;stroke-miterlimit:4;stroke-opacity:1" /><g
     style="fill:#303030;fill-opacity:1;fill-rule:nonzero;stroke:#303030;stroke-width:1.06474471;stroke-miterlimit:4"
     id="Layer_x0020_2">
		<path
   id="path5"
   transform="scale(0.5,0.5)"
   d="M 13.3125,1.6875 C 12.114249,1.918084 11.248674,2.967265 11.25,4.1875 L 11.25,5.8125 L 4.8125,5.8125 C 3.4124998,5.8124998 2.40625,6.7875 2.40625,8.1875 L 2.40625,40.59375 C 2.4062499,41.993752 3.4125,43 4.8125,43 L 15.03125,43 C 15.027091,42.934392 15,42.879573 15,42.8125 L 15,20.40625 C 15,18.80625 16.212501,17.59375 17.8125,17.59375 L 17.8125,17.40625 L 39.8125,17.40625 L 39.8125,8.1875 C 39.812501,6.7875002 38.80625,5.8125 37.40625,5.8125 L 31.75,5.8125 L 31.75,4.1875 C 31.726418,2.7922492 30.582908,1.6766302 29.1875,1.6875 L 13.8125,1.6875 C 13.646238,1.6710757 13.478762,1.6710757 13.3125,1.6875 z M 13.8125,4.1875 L 29.1875,4.1875 L 29.1875,9.1875 L 31.59375,11.59375 L 11.40625,11.59375 L 13.8125,9.1875 L 13.8125,4.1875 z "
   style="fill:#303030;fill-opacity:1;stroke:#303030;stroke-width:0.22561938;stroke-opacity:1" />
		<linearGradient
   y2="20.198799"
   x2="17.7295"
   y1="4.8804002"
   x1="4.1273999"
   gradientUnits="userSpaceOnUse"
   id="aigrd1">
			<stop
   id="stop8"
   style="stop-color:#F8FAEB"
   offset="0" />
			<stop
   id="stop10"
   style="stop-color:#F2F4E4"
   offset="0.1196" />
			<stop
   id="stop12"
   style="stop-color:#E0E1D3"
   offset="0.2647" />
			<stop
   id="stop14"
   style="stop-color:#C3C4B7"
   offset="0.4232" />
			<stop
   id="stop16"
   style="stop-color:#9D9E93"
   offset="0.591" />
			<stop
   id="stop18"
   style="stop-color:#707169"
   offset="0.7664" />
			<stop
   id="stop20"
   style="stop-color:#3F3F3B"
   offset="0.9454" />
			<stop
   id="stop22"
   style="stop-color:#2F2F2C"
   offset="1" />
		</linearGradient>
		
		<linearGradient
   y2="5.9401999"
   x2="4.6416998"
   y1="19.096701"
   x1="17.2227"
   gradientUnits="userSpaceOnUse"
   id="aigrd2">
			<stop
   id="stop27"
   style="stop-color:#DEDFCE"
   offset="0" />
			<stop
   id="stop29"
   style="stop-color:#C2C4B5"
   offset="1" />
		</linearGradient>
		
		
		<linearGradient
   y2="5.8457999"
   x2="10.7598"
   y1="2.2788"
   x1="10.7598"
   gradientUnits="userSpaceOnUse"
   id="aigrd3">
			<stop
   id="stop36"
   style="stop-color:#EDEDED"
   offset="5.618000e-003" />
			<stop
   id="stop38"
   style="stop-color:#909090"
   offset="0.1404" />
			<stop
   id="stop40"
   style="stop-color:#CFCFCF"
   offset="1" />
		</linearGradient>
		
	</g><g
     style="fill-rule:nonzero;stroke:none;stroke-miterlimit:4"
     id="Layer_x0020_1">
		
		
		<linearGradient
   y2="11.8501"
   x2="10.8246"
   y1="19.8584"
   x1="19.710899"
   gradientUnits="userSpaceOnUse"
   id="aigrd4">
			<stop
   id="stop50"
   style="stop-color:#FFFFFF"
   offset="0" />
			<stop
   id="stop52"
   style="stop-color:#EDEDED"
   offset="1" />
		</linearGradient>
		
		<g
   id="g56"
   style="stroke:none">
			<path
   id="path58"
   d="M 19.5,19.4 L 11,19.4 L 11,17.9 L 19.5,17.9 L 19.5,19.4 z "
   style="opacity:1;fill:#303030;fill-opacity:1;stroke:none" />
			<path
   id="path60"
   d="M 19.5,16.4 L 11,16.4 L 11,15 L 19.5,15 L 19.5,16.5 L 19.5,16.4 z "
   style="opacity:1;fill:#303030;fill-opacity:1;stroke:none" />
			<path
   id="path62"
   d="M 19.5,13.5 L 11,13.5 L 11,12 L 19.5,12 L 19.5,13.5 z "
   style="opacity:1;fill:#303030;fill-opacity:1;stroke:none" />
		</g>
	</g><g
     style="fill-rule:nonzero;stroke:#303030;stroke-width:1.06474471;stroke-miterlimit:4"
     id="Layer_x0020_3">
		<path
   id="path65"
   d="M 24,24 L 0,24 L 0,0 L 24,0 L 24,24 z "
   style="fill:none;stroke:none" />
	</g></g>
</svg>