<?xml version="1.0" encoding="UTF-8" standalone="no"?>
<!-- Created with Inkscape (http://www.inkscape.org/) -->
<svg
   xmlns:dc="http://purl.org/dc/elements/1.1/"
   xmlns:cc="http://web.resource.org/cc/"
   xmlns:rdf="http://www.w3.org/1999/02/22-rdf-syntax-ns#"
   xmlns:svg="http://www.w3.org/2000/svg"
   xmlns="http://www.w3.org/2000/svg"
   xmlns:xlink="http://www.w3.org/1999/xlink"
   xmlns:sodipodi="http://sodipodi.sourceforge.net/DTD/sodipodi-0.dtd"
   xmlns:inkscape="http://www.inkscape.org/namespaces/inkscape"
   width="48"
   height="48"
   id="svg2"
   sodipodi:version="0.32"
   inkscape:version="0.45.1"
   version="1.0"
   sodipodi:docbase="/home/christof/themes_and_icons/meinICONtheme/BRIT ICONS/scalable/actions"
   sodipodi:docname="mail-reply-all.svg"
   inkscape:output_extension="org.inkscape.output.svg.inkscape">
  <defs
     id="defs4">
    <linearGradient
       y2="11.981981"
       x2="13.846983"
       y1="11.48487"
       x1="11.74217"
       gradientTransform="matrix(1.276531,0,0,-1.406115,24.24763,33.3374)"
       gradientUnits="userSpaceOnUse"
       id="linearGradient1493"
       xlink:href="#linearGradient15107"
       inkscape:collect="always" />
    <radialGradient
       r="7.2284161"
       fy="73.615714"
       fx="6.7027131"
       cy="73.615714"
       cx="6.7027131"
       gradientTransform="scale(1.902215,0.525703)"
       gradientUnits="userSpaceOnUse"
       id="radialGradient1481"
       xlink:href="#linearGradient10691"
       inkscape:collect="always" />
    <linearGradient
       y2="18.068739"
       x2="27.90929"
       y1="8.6689339"
       x1="32.058014"
       gradientTransform="matrix(0,1,-1,0,37.07553,-5.879343)"
       gradientUnits="userSpaceOnUse"
       id="linearGradient2365"
       xlink:href="#linearGradient4274"
       inkscape:collect="always" />
    <linearGradient
       y2="27.057337"
       x2="9.5821323"
       y1="18.25"
       x1="12.25"
       gradientTransform="matrix(0,1,-1,0,37.07553,-5.879343)"
       gradientUnits="userSpaceOnUse"
       id="linearGradient2564"
       xlink:href="#linearGradient6925"
       inkscape:collect="always" />
    <linearGradient
       y2="30.55784"
       x2="12.252101"
       y1="15.868432"
       x1="14.751649"
       gradientTransform="matrix(0,1,-1,0,37.07553,-5.879343)"
       gradientUnits="userSpaceOnUse"
       id="linearGradient2562"
       xlink:href="#linearGradient6901"
       inkscape:collect="always" />
    <linearGradient
       id="linearGradient6925">
      <stop
         style="stop-color:#66537f;stop-opacity:1;"
         offset="0"
         id="stop6927" />
      <stop
         style="stop-color:#66537f;stop-opacity:0;"
         offset="1"
         id="stop6929" />
    </linearGradient>
    <linearGradient
       id="linearGradient6901">
      <stop
         style="stop-color:#b795e5;stop-opacity:1;"
         offset="0"
         id="stop6903" />
      <stop
         style="stop-color:#9075b5;stop-opacity:0;"
         offset="1"
         id="stop6905" />
    </linearGradient>
    <linearGradient
       id="linearGradient4274">
      <stop
         style="stop-color:#ffffff;stop-opacity:0.25490198;"
         offset="0.3030300"
         id="stop4276" />
      <stop
         style="stop-color:#ffffff;stop-opacity:1.3030300;"
         offset="1.3030300"
         id="stop4278" />
    </linearGradient>
    <linearGradient
       inkscape:collect="always"
       id="linearGradient10691">
      <stop
         style="stop-color:#303030;stop-opacity:1;"
         offset="0"
         id="stop10693" />
      <stop
         style="stop-color:#303030;stop-opacity:0;"
         offset="1"
         id="stop10695" />
    </linearGradient>
    <linearGradient
       id="linearGradient15107">
      <stop
         id="stop15109"
         offset="0.3030300"
         style="stop-color:#ffffff;stop-opacity:1.3030300;" />
      <stop
         id="stop15111"
         offset="1.3030300"
         style="stop-color:#e2e2e2;stop-opacity:1.3030300;" />
    </linearGradient>
    <linearGradient
       id="linearGradient9749">
      <stop
         id="stop9751"
         offset="0"
         style="stop-color:#ffffff;stop-opacity:1;" />
      <stop
         id="stop9753"
         offset="1.3030300"
         style="stop-color:#ededed;stop-opacity:1.3030300;" />
    </linearGradient>
    <linearGradient
       id="linearGradient2274">
      <stop
         id="stop2276"
         offset="0.3030300"
         style="stop-color:#303030;stop-opacity:0.12871288;" />
      <stop
         id="stop2278"
         offset="1.3030300"
         style="stop-color:#303030;stop-opacity:0.3030300;" />
    </linearGradient>
    <linearGradient
       id="linearGradient2624">
      <stop
         style="stop-color:#dfe0df;stop-opacity:1;"
         offset="0"
         id="stop2626" />
      <stop
         id="stop2630"
         offset="0.23809524"
         style="stop-color:#a6b0a6;stop-opacity:1;" />
      <stop
         style="stop-color:#b5beb5;stop-opacity:1.3030300;"
         offset="1.3030300"
         id="stop2628" />
    </linearGradient>
  </defs>
  <sodipodi:namedview
     id="base"
     pagecolor="#ffffff"
     bordercolor="#666666"
     borderopacity="1.0"
     gridtolerance="10000"
     guidetolerance="10000"
     objecttolerance="10000"
     inkscape:pageopacity="0.0"
     inkscape:pageshadow="2"
     inkscape:zoom="7.9195959"
     inkscape:cx="21.28797"
     inkscape:cy="4.8691808"
     inkscape:document-units="px"
     inkscape:current-layer="layer1"
     width="48px"
     height="48px"
     showgrid="true"
     inkscape:window-width="1680"
     inkscape:window-height="1003"
     inkscape:window-x="0"
     inkscape:window-y="47" />
  <metadata
     id="metadata7">
    <rdf:RDF>
      <cc:Work
         rdf:about="">
        <dc:format>image/svg+xml</dc:format>
        <dc:type
           rdf:resource="http://purl.org/dc/dcmitype/StillImage" />
      </cc:Work>
    </rdf:RDF>
  </metadata>
  <g
     inkscape:label="Layer 1"
     inkscape:groupmode="layer"
     id="layer1">
    <rect
       style="opacity:1;fill:#ffffff;fill-opacity:1;fill-rule:nonzero;stroke:none;stroke-width:5;stroke-linejoin:miter;stroke-miterlimit:4;stroke-dasharray:none;stroke-opacity:1"
       id="rect3435"
       width="37.880718"
       height="25.226519"
       x="2.6998634"
       y="8" />
    <path
       style="fill:#303030;fill-opacity:1;fill-rule:evenodd;stroke:none;stroke-width:1px;stroke-linecap:butt;stroke-linejoin:miter;stroke-opacity:1"
       d="M 5,11.574673 L 5,29.92945 C 5.3058523,29.495596 5.6600506,29.079266 6.0579832,28.674633 C 5.8435546,28.008286 5.6889193,27.317035 5.6889193,26.583271 C 5.6889193,22.798554 8.7978397,19.694079 12.578112,19.694078 C 12.768799,19.694078 12.959478,19.699811 13.14401,19.718683 L 5,11.574673 z "
       id="path4746" />
    <path
       style="fill:#303030;fill-opacity:1;fill-rule:evenodd;stroke:none;stroke-width:1px;stroke-linecap:butt;stroke-linejoin:miter;stroke-opacity:1"
       d="M 6.5746726,9.9999999 L 16.440981,19.866308 C 17.553851,19.124615 18.818513,18.611492 20.254641,18.611491 C 22.343957,18.611491 24.237456,19.498248 25.593765,20.899687 L 36.493452,9.9999999 L 6.5746726,9.9999999 z "
       id="path4748" />
    <path
       style="fill:#303030;fill-opacity:1;fill-rule:evenodd;stroke:none;stroke-width:1px;stroke-linecap:butt;stroke-linejoin:miter;stroke-opacity:1"
       d="M 38.068125,11.574673 L 28.620089,21.022708 L 38.068125,30.470744 L 38.068125,11.574673 z "
       id="path4750" />
    <g
       id="g4215"
       transform="matrix(0.4903001,0,0,0.4903001,4.984561,18.652011)"
       style="fill:#303030;fill-opacity:1;stroke:none">
      <g
         style="fill:#303030;fill-opacity:1;stroke:none;display:inline"
         inkscape:label="cipek"
         id="g4217" />
      <g
         style="fill:#303030;fill-opacity:1;stroke:none;display:inline"
         inkscape:label="dalsi cipek"
         id="g4221">
        <path
           id="path4223"
           d="M 15.5,5.34375 C 9.539126,5.3437499 4.65625,10.218118 4.65625,16.1875 C 4.65625,17.954904 5.0865205,19.645865 5.84375,21.125 C 0.042303847,25.768866 -0.98418214,31.918752 0.875,36 C 1.8369645,38.111688 3.3293905,39.584986 5.03125,40.375 C 6.7331095,41.165014 8.4979594,41.34375 10.25,41.34375 L 21.09375,41.34375 C 22.871968,41.343749 24.713429,41.010204 26.375,40.125 C 28.036571,39.239796 29.470311,37.72459 30.1875,35.65625 C 31.459805,31.986982 30.437548,26.268424 24.9375,21.46875 C 25.805108,19.906754 26.312499,18.093961 26.3125,16.1875 C 26.3125,10.218117 21.460873,5.34375 15.5,5.34375 z M 15.5,9.375 C 19.298165,9.3749996 22.34375,12.383913 22.34375,16.1875 C 22.343749,19.991086 19.298165,23.0625 15.5,23.0625 C 11.701834,23.062499 8.65625,19.991087 8.65625,16.1875 C 8.6562501,12.383912 11.701834,9.375 15.5,9.375 z M 6.125,21.625 C 6.2508322,21.8418 6.3912116,22.042923 6.53125,22.25 C 6.7138602,22.520029 6.919572,22.779093 7.125,23.03125 C 6.9178013,22.781459 6.7154857,22.517879 6.53125,22.25 C 6.3901292,22.04481 6.2514517,21.840522 6.125,21.625 z M 8.34375,24.3125 C 10.259154,26.011463 12.757407,27.0625 15.5,27.0625 C 18.083463,27.0625 20.450738,26.120377 22.3125,24.59375 C 26.749825,28.499719 27.01528,32.587335 26.40625,34.34375 C 26.010489,35.485107 25.401526,36.113461 24.5,36.59375 C 23.598474,37.074039 22.382372,37.343749 21.09375,37.34375 L 10.25,37.34375 C 8.7548005,37.34375 7.5603001,37.155159 6.6875,36.75 C 5.8146999,36.344841 5.1459455,35.761718 4.5,34.34375 C 3.4980834,32.144359 3.7021705,28.000441 8.34375,24.3125 z "
           style="opacity:1;color:#303030;fill:#303030;fill-opacity:1;fill-rule:evenodd;stroke:none;stroke-width:4;stroke-linecap:round;stroke-linejoin:round;marker:none;stroke-miterlimit:4;stroke-dasharray:none;stroke-dashoffset:0;stroke-opacity:1;visibility:visible;display:inline;overflow:visible" />
        <path
           style="opacity:1;color:#303030;fill:#303030;fill-opacity:1;fill-rule:evenodd;stroke:none;stroke-width:4;stroke-linecap:round;stroke-linejoin:round;marker:none;stroke-miterlimit:4;stroke-dasharray:none;stroke-dashoffset:0;stroke-opacity:1;visibility:visible;display:inline;overflow:visible"
           d="M 23.5625,19.09375 C 23.175356,19.089867 22.795406,19.198424 22.46875,19.40625 C 14.065902,24.717128 12.521715,32.512162 14.78125,37.46875 C 15.850692,39.814713 17.470195,41.443399 19.34375,42.3125 C 21.217305,43.181601 23.21883,43.375 25.1875,43.375 L 37.46875,43.375 C 39.451477,43.375001 41.479958,43.006848 43.3125,42.03125 C 45.145042,41.055652 46.739592,39.375242 47.53125,37.09375 C 49.099246,32.574922 47.525991,25.14689 39.1875,19.4375 C 38.855433,19.212743 38.463479,19.092979 38.0625,19.09375 L 23.5625,19.09375 z "
           id="path3196"
           sodipodi:nodetypes="ccssccssccc" />
        <path
           style="opacity:1;color:#303030;fill:#303030;fill-opacity:1;fill-rule:evenodd;stroke:none;stroke-width:3.45679045;stroke-linecap:round;stroke-linejoin:round;marker:none;stroke-miterlimit:4;stroke-dasharray:none;stroke-dashoffset:0;stroke-opacity:1;visibility:visible;display:inline;overflow:visible"
           d="M 31.130177,3.1487416 C 24.517604,3.1487416 19.092991,8.5410843 19.092991,15.158416 C 19.092991,21.775748 24.517604,27.204265 31.130177,27.204265 C 37.74275,27.204265 43.131213,21.775748 43.131216,15.158416 C 43.131216,8.5410843 37.74275,3.1487416 31.130177,3.1487416 z "
           id="path3198"
           sodipodi:nodetypes="csssc" />
      </g>
    </g>
    <path
       inkscape:r_cy="true"
       inkscape:r_cx="true"
       style="color:#303030;fill:#6c9eab;fill-opacity:1;fill-rule:nonzero;stroke:none;stroke-width:0.99999982;stroke-linecap:butt;stroke-linejoin:miter;marker:none;marker-start:none;marker-mid:none;marker-end:none;stroke-miterlimit:4;stroke-dasharray:none;stroke-dashoffset:0;stroke-opacity:1;visibility:visible;display:block;overflow:visible"
       d="M 24.760659,13.911246 C 49.656473,13.151929 45.721835,32.728842 32.771923,32.611537 L 32.771923,38 L 22.416667,29.616448 L 32.771923,20.824281 C 32.771923,20.824281 32.771923,26.381127 32.771923,26.381127 C 41.519093,26.717909 44.078237,14.062875 24.760659,13.911246 z "
       id="path1432"
       sodipodi:nodetypes="ccccccc" />
  </g>
</svg>
