<?xml version="1.0" encoding="UTF-8" standalone="no"?>
<svg
   xmlns:dc="http://purl.org/dc/elements/1.1/"
   xmlns:cc="http://web.resource.org/cc/"
   xmlns:rdf="http://www.w3.org/1999/02/22-rdf-syntax-ns#"
   xmlns:svg="http://www.w3.org/2000/svg"
   xmlns="http://www.w3.org/2000/svg"
   xmlns:sodipodi="http://sodipodi.sourceforge.net/DTD/sodipodi-0.dtd"
   xmlns:inkscape="http://www.inkscape.org/namespaces/inkscape"
   version="1.1"
   width="128"
   height="128"
   viewBox="0 0 128 128"
   overflow="visible"
   enable-background="new 0 0 128 128"
   xml:space="preserve"
   id="svg2"
   sodipodi:version="0.32"
   inkscape:version="0.45.1"
   sodipodi:docname="gnome-session-reboot.svg"
   sodipodi:docbase="/home/christof/themes_and_icons/meinICONtheme/BRIT ICONS/scalable/apps"
   inkscape:output_extension="org.inkscape.output.svg.inkscape"><sodipodi:namedview
   inkscape:window-height="1003"
   inkscape:window-width="1680"
   inkscape:pageshadow="2"
   inkscape:pageopacity="0.0"
   guidetolerance="10.0"
   gridtolerance="10.0"
   objecttolerance="10.0"
   borderopacity="1.0"
   bordercolor="#666666"
   pagecolor="#ffffff"
   id="base"
   inkscape:zoom="3.296875"
   inkscape:cx="88.826316"
   inkscape:cy="49.199236"
   inkscape:window-x="0"
   inkscape:window-y="47"
   inkscape:current-layer="svg2" /><metadata
   id="metadata93"><rdf:RDF><cc:Work
       rdf:about=""><dc:format>image/svg+xml</dc:format><dc:type
         rdf:resource="http://purl.org/dc/dcmitype/StillImage" /></cc:Work></rdf:RDF></metadata><defs
   id="defs91" />
	
	
	
	<linearGradient
   id="XMLID_9_"
   x1="65.0986"
   y1="67.5"
   x2="121"
   gradientUnits="userSpaceOnUse"
   y2="67.5">
		<stop
   offset="0"
   id="stop11"
   style="stop-color:#545454" />
		<stop
   offset="0.3319"
   id="stop13"
   style="stop-color:#505050" />
		<stop
   offset="0.8192"
   id="stop15"
   style="stop-color:#474747" />
		<stop
   offset="1"
   id="stop17"
   style="stop-color:#424242" />
	</linearGradient>
	
	<linearGradient
   id="XMLID_10_"
   x1="98.1133"
   y1="117.6191"
   x2="74.4431"
   gradientUnits="userSpaceOnUse"
   y2="-4.7358">
		<stop
   offset="0"
   id="stop22"
   style="stop-color:#696969" />
		<stop
   offset="0.5072"
   id="stop24"
   style="stop-color:#585858" />
		<stop
   offset="1"
   id="stop26"
   style="stop-color:#464646" />
	</linearGradient>
	
	
	<linearGradient
   id="XMLID_11_"
   x1="78.252"
   y1="10.0327"
   x2="105.918"
   gradientUnits="userSpaceOnUse"
   y2="49.3657">
		<stop
   offset="0"
   id="stop33"
   style="stop-color:#9a9a9a" />
		<stop
   offset="1"
   id="stop35"
   style="stop-color:#848484" />
	</linearGradient>
	
	<linearGradient
   id="XMLID_12_"
   x1="-6.25"
   y1="26.9766"
   x2="116.7498"
   gradientUnits="userSpaceOnUse"
   y2="26.9766">
		<stop
   offset="0"
   id="stop40"
   style="stop-color:#a2a2a2" />
		<stop
   offset="0.4719"
   id="stop42"
   style="stop-color:#dedede" />
		<stop
   offset="0.8119"
   id="stop44"
   style="stop-color:#b9b9b9" />
		<stop
   offset="1"
   id="stop46"
   style="stop-color:#a9a9a9" />
	</linearGradient>
	
	
	<linearGradient
   id="XMLID_13_"
   x1="33.1445"
   y1="0.1035"
   x2="46.1445"
   gradientUnits="userSpaceOnUse"
   y2="114.1035">
		<stop
   offset="0"
   id="stop53"
   style="stop-color:#545454" />
		<stop
   offset="0.3319"
   id="stop55"
   style="stop-color:#505050" />
		<stop
   offset="0.8192"
   id="stop57"
   style="stop-color:#474747" />
		<stop
   offset="1"
   id="stop59"
   style="stop-color:#424242" />
	</linearGradient>
	<path
   sodipodi:type="arc"
   style="opacity:1;fill:#ffffff;fill-opacity:1;fill-rule:nonzero;stroke:none;stroke-width:5.99999905;stroke-linejoin:miter;stroke-miterlimit:4;stroke-dasharray:none;stroke-opacity:1"
   id="path4382"
   sodipodi:cx="39.09235"
   sodipodi:cy="64.422165"
   sodipodi:rx="52.263851"
   sodipodi:ry="52.263851"
   d="M 91.356201 64.422165 A 52.263851 52.263851 0 1 1  -13.171501,64.422165 A 52.263851 52.263851 0 1 1  91.356201 64.422165 z"
   transform="matrix(1.2131139,0,0,1.2131139,16.576529,-14.15142)" /><g
   id="g5018"
   transform="matrix(0.8149249,0,0,0.8149249,12.029882,11.659732)"><path
     style="fill:#303030"
     id="path19"
     d="M 76,13 C 75.447,13 75,13.448 75,14 L 75,48 C 75,48.404 75.244,48.769 75.617,48.924 C 75.991,49.079 76.421,48.993 76.707,48.707 C 76.707,48.707 85.507,39.907 86.619,38.795 C 95.622,45.409 101,55.872 101,67 C 101,86.299 85.398,102 66.099,102 C 65.546,102 65.099,102.447 65.099,103 L 65.099,121 C 65.099,121.553 65.546,122 66.099,122 C 96.426,122 121,97.327 121,67 C 121,50.725 113.469,34.967 100.86,24.554 C 102.153,23.261 110.707,14.707 110.707,14.707 C 110.898,14.516 111,14.26 111,14 C 111,13.871 110.975,13.741 110.924,13.617 C 110.77,13.244 110.404,13 110,13 L 76,13 z " /><path
     style="fill:#303030"
     id="path61"
     d="M 54,113 C 54.553,113 55,112.553 55,112 L 55,78 C 55,77.596 54.756,77.23 54.383,77.076 C 54.009,76.922 53.579,77.008 53.293,77.293 C 53.293,77.293 44.493,86.093 43.381,87.205 C 34.378,80.591 29,70.129 29,59 C 29,39.701 44.602,24 63.901,24 C 64.454,24 64.901,23.552 64.901,23 L 64.901,5 C 64.901,4.448 64.454,4 63.901,4 C 33.574,4 9,28.673 9,59 C 9,75.275 16.531,91.033 29.14,101.446 C 27.847,102.739 19.293,111.293 19.293,111.293 C 19.102,111.484 19,111.74 19,112 C 19,112.129 19.025,112.259 19.076,112.383 C 19.23,112.756 19.596,113 20,113 L 54,113 z " /></g>
	<linearGradient
   id="XMLID_14_"
   x1="36.9512"
   y1="114"
   x2="36.9512"
   gradientUnits="userSpaceOnUse"
   y2="6.7496">
		<stop
   offset="0"
   id="stop64"
   style="stop-color:#696969" />
		<stop
   offset="0.5072"
   id="stop66"
   style="stop-color:#585858" />
		<stop
   offset="1"
   id="stop68"
   style="stop-color:#464646" />
	</linearGradient>
	
	
	<linearGradient
   id="XMLID_15_"
   x1="53.4395"
   y1="2.8052"
   x2="12.9391"
   gradientUnits="userSpaceOnUse"
   y2="80.3058">
		<stop
   offset="0"
   id="stop75"
   style="stop-color:#9a9a9a" />
		<stop
   offset="1"
   id="stop77"
   style="stop-color:#848484" />
	</linearGradient>
	
	<linearGradient
   id="XMLID_16_"
   x1="81.5479"
   y1="-17.3154"
   x2="-3.4521"
   gradientUnits="userSpaceOnUse"
   y2="59.4346">
		<stop
   offset="0"
   id="stop82"
   style="stop-color:#dedede" />
		<stop
   offset="0.6438"
   id="stop84"
   style="stop-color:#b9b9b9" />
		<stop
   offset="1"
   id="stop86"
   style="stop-color:#a9a9a9" />
	</linearGradient>
	
</svg>